<?xml version="1.0" standalone="no"?>
<!DOCTYPE svg PUBLIC "-//W3C//DTD SVG 20010904//EN"
 "http://www.w3.org/TR/2001/REC-SVG-20010904/DTD/svg10.dtd">
<svg version="1.0" xmlns="http://www.w3.org/2000/svg"
 width="164.000000pt" height="164.000000pt" viewBox="0 0 164.000000 164.000000"
 preserveAspectRatio="xMidYMid meet">

<g transform="translate(0.000000,164.000000) scale(0.100000,-0.100000)"
fill="skyblue" stroke="none">
<path d="M246 1518 c-19 -18 -51 -46 -71 -62 -58 -46 -78 -97 -75 -186 3 -87
3 -145 0 -197 -2 -31 4 -42 29 -65 17 -15 37 -28 45 -28 9 0 16 -18 20 -49 4
-32 19 -68 40 -100 28 -41 32 -52 21 -61 -32 -27 -65 -114 -65 -172 0 -57 0
-58 -28 -58 -57 0 -67 -26 -70 -189 -4 -167 5 -217 44 -231 14 -6 182 -10 390
-10 l364 0 0 -25 0 -25 311 0 312 0 -6 44 c-6 39 -3 46 24 72 64 60 73 92 77
279 7 275 -19 376 -118 469 -72 68 -126 89 -237 94 -51 2 -93 8 -93 11 0 4 10
17 23 29 22 21 32 22 204 22 231 0 217 -12 221 188 4 165 -5 213 -43 230 -18
9 -140 12 -414 12 -366 0 -391 1 -432 20 -39 17 -66 20 -241 20 l-197 0 -35
-32z m441 -19 c15 -5 54 -27 85 -47 73 -47 110 -114 112 -200 1 -31 -2 -65 -6
-74 -9 -22 -48 -12 -48 13 0 11 -4 19 -10 19 -5 0 -10 9 -10 20 0 11 -3 20 -8
20 -4 0 -13 14 -21 32 -17 38 -95 118 -115 118 -30 0 -23 -29 15 -59 36 -30
86 -107 76 -117 -3 -3 -27 9 -53 26 -27 17 -72 38 -101 46 -32 9 -57 24 -67
39 -16 24 -49 45 -100 65 -20 7 -25 5 -29 -11 -4 -15 4 -23 38 -38 50 -22 75
-55 82 -109 6 -45 -9 -62 -35 -39 -31 27 -116 65 -175 77 -69 14 -86 4 -113
-66 -14 -37 -39 -62 -51 -51 -8 9 -15 137 -9 171 5 23 22 51 49 79 l42 42 3
-42 c3 -35 7 -43 23 -43 17 0 19 7 19 63 0 35 3 67 7 70 11 11 369 8 400 -4z
m861 -37 c9 -7 12 -48 10 -173 l-3 -164 -187 -5 -187 -5 -49 -48 c-26 -26 -51
-44 -55 -41 -4 4 -7 27 -7 51 l0 43 -81 0 -81 0 6 25 c25 100 13 194 -34 269
-17 26 -30 49 -30 51 0 9 685 5 698 -3z m-882 -237 c22 -13 55 -38 73 -54 l33
-31 -4 -123 c-3 -118 -4 -125 -31 -160 -49 -65 -73 -72 -238 -72 -142 0 -146
1 -187 27 -66 44 -76 72 -80 228 -2 115 0 140 15 170 15 30 22 34 48 31 52 -6
128 -40 183 -81 29 -22 54 -40 56 -40 9 0 36 83 36 111 0 29 2 31 28 24 15 -3
45 -17 68 -30z m-480 -203 c-11 -10 -46 31 -46 54 0 13 10 30 23 39 22 15 22
15 25 -36 2 -28 1 -54 -2 -57z m694 77 c6 -10 10 -22 10 -28 0 -17 -40 -52
-50 -46 -11 7 -14 88 -4 98 9 9 34 -4 44 -24z m150 -43 c0 -13 2 -30 5 -38 3
-8 -11 -19 -39 -31 -50 -21 -186 -157 -186 -187 0 -6 -4 -10 -9 -10 -5 0 -12
-12 -15 -26 l-7 -27 -24 23 -24 22 32 42 c18 22 35 42 40 44 4 2 7 10 7 18 0
8 5 14 10 14 6 0 10 17 10 38 0 34 4 38 39 53 29 13 42 26 52 53 12 35 15 36
61 36 44 0 48 -2 48 -24z m345 -104 c63 -29 119 -82 153 -147 27 -49 27 -53
30 -279 2 -156 0 -237 -8 -256 -11 -28 -57 -77 -63 -69 -2 2 -25 27 -51 56
l-47 51 33 47 33 47 3 214 3 213 -25 26 c-31 31 -66 34 -66 5 0 -11 6 -20 14
-20 7 0 19 -7 26 -15 20 -25 -5 -45 -56 -45 -43 0 -44 0 -44 34 0 37 -28 66
-62 66 -25 0 -23 -37 3 -45 14 -5 19 -14 17 -28 -3 -21 -9 -22 -136 -27 l-134
-5 -30 -33 -29 -34 3 -156 c3 -156 3 -157 33 -200 l31 -44 -36 -36 c-20 -21
-42 -46 -48 -57 -14 -26 -38 -12 -67 36 -18 31 -20 52 -20 264 0 222 1 231 24
275 35 67 64 102 110 135 63 43 121 55 246 52 89 -2 120 -7 160 -25z m-1038
-200 c6 -4 21 -30 33 -57 27 -62 26 -62 50 -40 31 28 36 10 15 -53 l-20 -57
-92 -3 -93 -3 0 51 c0 56 20 113 52 147 23 24 35 28 55 15z m385 -19 c36 -37
48 -73 48 -139 l0 -54 -49 0 -48 0 -7 40 c-5 31 -12 43 -31 50 l-25 9 21 48
c18 43 42 73 59 73 3 0 18 -12 32 -27z m-284 -5 c-3 -7 -11 -13 -18 -13 -7 0
-15 6 -17 13 -3 7 4 12 17 12 13 0 20 -5 18 -12z m162 -3 c0 -8 -4 -15 -9 -15
-5 0 -14 7 -21 15 -10 13 -9 15 9 15 12 0 21 -6 21 -15z m820 -132 c0 -122 -4
-155 -19 -188 -35 -76 -92 -105 -208 -105 -99 0 -153 24 -188 84 -23 40 -25
52 -25 176 0 190 -13 180 242 180 l198 0 0 -147z m-901 124 c13 -16 5 -27 -21
-27 -18 0 -25 20 -11 33 10 10 19 8 32 -6z m61 -62 c10 -12 10 -19 1 -28 -9
-9 -14 -9 -21 3 -22 34 -4 54 20 25z m-57 -49 c10 -31 -13 -66 -45 -66 -22 0
-22 -4 -2 54 18 51 33 55 47 12z m107 -62 l0 -44 70 0 70 0 0 -93 c0 -119 9
-146 64 -202 25 -25 46 -48 46 -50 0 -9 -714 -5 -728 3 -9 7 -12 48 -10 173
l3 164 186 3 185 2 49 50 c26 27 52 47 57 44 4 -3 8 -25 8 -50z m452 -317 c3
-26 16 -63 27 -82 l20 -35 -99 0 c-74 0 -100 3 -100 13 1 29 40 95 74 125 51
44 69 39 78 -21z m313 16 c36 -35 65 -87 65 -118 0 -12 -16 -15 -95 -15 -52 0
-95 2 -95 5 0 2 9 19 20 37 11 18 20 43 20 55 0 34 18 73 33 73 8 0 31 -16 52
-37z m-125 -13 l0 -31 -72 3 c-71 3 -73 4 -76 31 l-3 27 75 0 76 0 0 -30z
m-30 -78 c0 -5 -9 -17 -20 -27 -20 -18 -21 -18 -48 8 l-27 27 48 0 c26 0 47
-4 47 -8z"/>
<path d="M1345 1385 c-23 -22 -25 -32 -25 -115 0 -83 1 -90 20 -90 17 0 20 7
20 45 0 43 1 45 30 45 29 0 30 -2 30 -45 0 -38 3 -45 20 -45 19 0 20 7 20 90
0 83 -2 93 -25 115 -13 14 -33 25 -45 25 -11 0 -32 -11 -45 -25z m65 -30 c17
-20 5 -45 -20 -45 -11 0 -23 7 -26 15 -6 15 11 45 26 45 4 0 13 -7 20 -15z"/>
<path d="M980 1290 c0 -15 7 -20 25 -20 18 0 25 5 25 20 0 15 -7 20 -25 20
-18 0 -25 -5 -25 -20z"/>
<path d="M1080 1290 c0 -13 7 -20 20 -20 13 0 20 7 20 20 0 13 -7 20 -20 20
-13 0 -20 -7 -20 -20z"/>
<path d="M1180 1290 c0 -13 7 -20 20 -20 13 0 20 7 20 20 0 13 -7 20 -20 20
-13 0 -20 -7 -20 -20z"/>
<path d="M310 1150 c-26 -26 -26 -74 0 -100 43 -43 114 -10 112 51 -2 61 -70
91 -112 49z m70 -50 c0 -23 -13 -32 -34 -24 -19 7 -21 25 -5 41 16 16 39 5 39
-17z"/>
<path d="M600 1150 c-27 -27 -26 -74 2 -100 45 -41 112 -11 110 51 -2 61 -70
91 -112 49z m70 -50 c0 -23 -13 -32 -34 -24 -19 7 -21 25 -5 41 16 16 39 5 39
-17z"/>
<path d="M384 953 c2 -10 7 -28 11 -40 3 -12 20 -34 36 -48 56 -46 147 -25
175 40 27 65 27 65 -107 65 -110 0 -120 -2 -115 -17z m186 -32 c0 -16 -42 -41
-68 -41 -30 0 -58 15 -66 35 -4 13 6 15 64 15 39 0 70 -4 70 -9z"/>
<path d="M1070 677 c-38 -19 -49 -61 -23 -95 26 -36 68 -41 99 -11 28 27 31
59 7 87 -24 27 -53 34 -83 19z m58 -60 c2 -9 -4 -20 -12 -23 -21 -8 -46 13
-39 32 8 20 47 13 51 -9z"/>
<path d="M1280 682 c-49 -16 -68 -83 -32 -115 42 -38 112 -6 112 51 0 40 -44
76 -80 64z m38 -65 c4 -20 -25 -34 -40 -19 -15 15 -1 44 19 40 10 -2 19 -11
21 -21z"/>
<path d="M1080 468 c0 -30 33 -84 61 -98 31 -17 83 -15 117 6 32 18 47 41 56
87 l6 27 -120 0 c-118 0 -120 0 -120 -22z m184 -33 c-14 -36 -84 -47 -116 -18
-30 27 -21 33 52 33 58 0 68 -2 64 -15z"/>
<path d="M290 420 c0 -17 -7 -20 -50 -20 -47 0 -50 -2 -50 -25 0 -20 5 -25 25
-25 16 0 25 -6 25 -15 0 -9 7 -29 15 -46 14 -26 14 -30 0 -35 -8 -3 -15 -15
-15 -26 0 -17 4 -19 28 -14 15 4 34 7 42 7 8 0 27 -3 43 -7 23 -5 27 -3 27 15
0 13 -6 21 -16 21 -11 0 -14 5 -9 18 4 9 11 32 17 50 7 25 14 32 33 32 20 0
25 5 25 25 0 23 -3 25 -50 25 -43 0 -50 3 -50 20 0 13 -7 20 -20 20 -13 0 -20
-7 -20 -20z m39 -100 c-13 -35 -24 -38 -39 -11 -16 32 -12 41 19 41 29 0 30
-1 20 -30z"/>
<path d="M480 330 c0 -13 7 -20 20 -20 13 0 20 7 20 20 0 13 -7 20 -20 20 -13
0 -20 -7 -20 -20z"/>
<path d="M580 330 c0 -13 7 -20 20 -20 13 0 20 7 20 20 0 13 -7 20 -20 20 -13
0 -20 -7 -20 -20z"/>
<path d="M670 330 c0 -15 7 -20 25 -20 18 0 25 5 25 20 0 15 -7 20 -25 20 -18
0 -25 -5 -25 -20z"/>
</g>
</svg>
